<?xml version="1.0" encoding="utf-8"?>
<!-- Generator: Adobe Illustrator 19.2.1, SVG Export Plug-In . SVG Version: 6.00 Build 0)  -->
<svg version="1.1" id="Layer_1" xmlns="http://www.w3.org/2000/svg" xmlns:xlink="http://www.w3.org/1999/xlink"
     x="0px" y="0px"
	 viewBox="0 0 128 76.8" style="enable-background:new 0 0 336.7 76.8;" xml:space="preserve">
<style type="text/css">
	.st0{fill:#fff;}
	.st1{fill:#E50076;}
	.st2{fill:#fff;}
	.st3{fill:#0085CC;}
</style>
<g>
	<g>
		<path class="st1" d="M66.4,25.4c2.2-2.6,3.6-5.9,3.6-9.6c0-8.1-6.6-14.6-14.6-14.6c-8.1,0-14.6,6.5-14.6,14.6c0,3.7,1.4,7,3.6,9.6
			l11.1,14.7L66.4,25.4z"/>
		<circle class="st1" cx="55.4" cy="60" r="6.7"/>
		<path class="st2" d="M22.2,43.4c-3.5,0-6.8,1.3-9.3,3.4v-2H4.6v30.4h8.3v-5.4c0,0,0-8.6,0-11.6c0-4.3,3.5-7.7,7.7-7.7
			s7.7,3.5,7.7,7.7c0,2.3,0,14.4,0,16.9h8.3V57.9C36.7,49.9,30.2,43.4,22.2,43.4z"/>
		<path class="st2" d="M65.7,38v8.7c-2.9-2.2-6.4-3.5-10.3-3.5c-4.9,0-9.3,2.1-12.3,5.4c-3,2.9-4.8,7-4.8,11.5
			c0,4.5,1.8,8.6,4.8,11.5c3.1,3.3,7.5,5.4,12.3,5.4c3.9,0,7.5-1.3,10.3-3.5v1.6h8.2V38H65.7z M55.4,69.3c-5.1,0-9.3-4.2-9.3-9.3
			c0-5.1,4.2-9.3,9.3-9.3c5.1,0,9.3,4.2,9.3,9.3C64.7,65.2,60.5,69.3,55.4,69.3z"/>
		<path class="st2" d="M28.5,5.7v1.8C25.6,5.2,22,3.8,18,3.8c-9.3,0-16.9,7.6-16.9,16.9C1.1,30,8.6,37.5,18,37.5
			c4,0,7.7-1.4,10.6-3.7v3.7h8.2V5.7H28.5z M18,30c-5.1,0-9.3-4.2-9.3-9.3c0-5.1,4.2-9.3,9.3-9.3c5.1,0,9.3,4.2,9.3,9.3
			C27.3,25.8,23.1,30,18,30z"/>
	</g>
	<g>
		<path class="st2" d="M96.6,71.6c0,3.4,2.4,3.4,2.4,3.4h2.4V57.3h-4.9C96.6,57.3,96.6,69.4,96.6,71.6z"/>
		<path class="st2" d="M82.7,57.3l0,11.7h0c0,1.5-2.8,3.1-2.8,3.1l2.3,3.1c3.1-1,5.3-2.9,5.3-7.3V57.3H82.7z"/>
		<g>
			<rect x="82.3" y="47.5" class="st2" width="19.8" height="4.9"/>
		</g>
		<g>
			<polygon class="st2" points="94.6,75 89.7,75 89.7,38 94.6,39 			"/>
		</g>
		<path class="st2" d="M116.8,43.2h-7.4c-2.6,0-4.7,2.1-4.7,4.7v19.6c0,2.6,2.1,4.7,4.7,4.7h7.4c2.6,0,4.7-2.1,4.7-4.7V47.9
			C121.5,45.3,119.4,43.2,116.8,43.2z M116.8,64.5c0,1.5-1.2,2.8-2.8,2.8h-1.8c-1.5,0-2.8-1.2-2.8-2.8V50.9c0-1.5,1.2-2.8,2.8-2.8
			h1.8c1.5,0,2.8,1.2,2.8,2.8V64.5z"/>
		<path class="st2" d="M96.3,42.9c4.7,0,5.9-2.2,6.9-6.4l-3.7-1.3c0,0-1.1,2.8-4.7,2.8v0l-12.6,0l0,2c0,0-0.1,2.9,3,2.9H96.3z"/>
	</g>
</g>

</svg>
