<svg width="76.8" height="76.8" xmlns="http://www.w3.org/2000/svg">
 <style type="text/css">.st0{fill:#fff;}
	.st1{fill:#E50076;}
	.st2{fill:#fff;}
	.st3{fill:#fff;}</style>

 <g>
  <title>background</title>
  <rect fill="none" id="canvas_background" height="78.8" width="78.8" y="-1" x="-1"/>
 </g>
 <g>
  <title>Layer 1</title>
  <g id="svg_1">
   <path id="svg_2" d="m64.9,45.2c-4.6,-6.1 -11.5,-12.3 -13.4,-13.9c-1.3,-1.1 -2.7,-1.6 -4,-1.6c-1.3,0 -2.6,0.6 -3.7,1.5c-0.2,0.2 -0.5,0.5 -0.9,0.8c-2.7,2.3 -11.2,10.1 -11.4,10.3c-0.6,0.6 -1.5,1 -2.4,1c-0.8,0 -1.7,-0.4 -2.6,-1.2c-0.6,-0.6 -3.5,-2.9 -6.9,-6.7c-2.1,-2.3 -3.8,-4.4 -3.8,-4.4s-0.4,0.8 -0.6,1.3c-0.2,0.5 0,0.7 0.1,0.9c1.1,1.6 6.3,7.8 13.4,13.9c1.3,1.1 2.7,1.6 4,1.6c1.3,0 2.6,-0.6 3.7,-1.5c0.2,-0.2 0.6,-0.5 0.9,-0.8c2.7,-2.3 7.9,-7 10.3,-9.3c0.5,-0.5 0.9,-0.8 1.1,-1c0.6,-0.6 1.5,-1 2.4,-1c0.8,0 1.7,0.4 2.6,1.2c1.5,1.3 4,3.6 6.9,6.6c2.1,2.3 3.8,4.4 3.8,4.4c0,0 0.4,-0.8 0.6,-1.4c0.1,-0.3 0,-0.6 -0.1,-0.7" class="st2"/>
   <path id="svg_3" d="m37.5,22.8c-2.4,1.7 -12.2,10.8 -14.1,13c0,0 1.4,1.5 3.4,3.2c0.5,0.5 1.2,0.4 1.7,-0.2c3.8,-3.8 11.5,-10.6 12.5,-11.4c2.9,-2.5 6.3,-2.7 9.4,-0.4c7.5,5.6 14.2,14.5 15.3,16.2c0,0 0.2,-0.8 0.3,-1.5c0,0 0.1,-0.7 -0.2,-1.3c-7.1,-10.2 -14.6,-16.5 -17.5,-18.1c-3.2,-1.7 -7,-2.3 -10.8,0.5" class="st3"/>
   <path id="svg_4" d="m29.5,17.4c-4.8,3.9 -11.1,9.7 -12.7,11.4c0,0 1.2,1.5 3,3.3c0.4,0.3 0.7,0.2 1.1,-0.1c4.8,-4.6 10,-9.4 13,-11.7c5.1,-3.9 11,-4.3 16.9,0.3c2.2,1.7 4.1,3.4 6.9,6.3c3.6,3.9 5.9,7.2 8.5,10.9c0,0 0,-1 -0.3,-2.3c0,-0.2 -0.1,-0.6 -0.3,-0.9c-0.5,-1 -2.8,-4.9 -6.1,-8.7c-6.5,-7.6 -10.6,-9.9 -13.3,-11.3c-3.4,-1.8 -10.2,-2.3 -16.7,2.8" class="st3"/>
   <path id="svg_5" d="m42.6,55.7c2.4,-1.7 12.2,-10.8 14.1,-13c0,0 -1.4,-1.5 -3.4,-3.2c-0.5,-0.5 -1.2,-0.4 -1.7,0.2c-3.9,3.7 -11.6,10.5 -12.6,11.3c-2.9,2.5 -6.3,2.7 -9.4,0.4c-7.5,-5.6 -14.2,-14.5 -15.3,-16.2c0,0 -0.2,0.8 -0.3,1.5c0,0 -0.1,0.7 0.2,1.3c7.1,10.2 14.6,16.5 17.5,18.1c3.3,1.8 7.1,2.3 10.9,-0.4" class="st3"/>
   <path id="svg_6" d="m50.5,61c4.8,-3.9 11.1,-9.7 12.7,-11.4c0,0 -1.2,-1.5 -3,-3.3c-0.4,-0.3 -0.7,-0.2 -1,0.1c-4.8,4.6 -10,9.4 -13,11.7c-5.1,3.9 -11,4.3 -16.9,-0.3c-2.2,-1.7 -4.1,-3.4 -6.9,-6.3c-3.6,-3.9 -5.9,-7.2 -8.5,-10.9c0,0 0,0.9 0.3,2.3c0.1,0.2 0.1,0.6 0.3,0.9c0.5,1 2.8,4.9 6.1,8.8c6.5,7.6 10.6,9.9 13.3,11.3c3.4,1.7 10.2,2.3 16.6,-2.9" class="st3"/>
  </g>
 </g>
</svg>