<?xml version="1.0" encoding="utf-8"?>
<!-- Generator: Adobe Illustrator 19.2.1, SVG Export Plug-In . SVG Version: 6.00 Build 0)  -->
<svg version="1.1" id="Layer_1" xmlns="http://www.w3.org/2000/svg" xmlns:xlink="http://www.w3.org/1999/xlink" x="0px" y="0px"
	 viewBox="0 0 336.7 76.8" style="enable-background:new 0 0 336.7 76.8;" xml:space="preserve">
<style type="text/css">
	.st0{fill:#fff;}
	.st1{fill:#E50076;}
	.st2{fill:#fff;}
	.st3{fill:#fff;}
</style>
<g>
	<g>
		<rect x="139.7" y="1.2" class="st0" width="2.9" height="75.7"/>
	</g>
</g>
<g>
	<g>
		<path class="st1" d="M66.4,25.4c2.2-2.6,3.6-5.9,3.6-9.6c0-8.1-6.6-14.6-14.6-14.6c-8.1,0-14.6,6.5-14.6,14.6c0,3.7,1.4,7,3.6,9.6
			l11.1,14.7L66.4,25.4z"/>
		<circle class="st1" cx="55.4" cy="60" r="6.7"/>
		<path class="st2" d="M22.2,43.4c-3.5,0-6.8,1.3-9.3,3.4v-2H4.6v30.4h8.3v-5.4c0,0,0-8.6,0-11.6c0-4.3,3.5-7.7,7.7-7.7
			s7.7,3.5,7.7,7.7c0,2.3,0,14.4,0,16.9h8.3V57.9C36.7,49.9,30.2,43.4,22.2,43.4z"/>
		<path class="st2" d="M65.7,38v8.7c-2.9-2.2-6.4-3.5-10.3-3.5c-4.9,0-9.3,2.1-12.3,5.4c-3,2.9-4.8,7-4.8,11.5
			c0,4.5,1.8,8.6,4.8,11.5c3.1,3.3,7.5,5.4,12.3,5.4c3.9,0,7.5-1.3,10.3-3.5v1.6h8.2V38H65.7z M55.4,69.3c-5.1,0-9.3-4.2-9.3-9.3
			c0-5.1,4.2-9.3,9.3-9.3c5.1,0,9.3,4.2,9.3,9.3C64.7,65.2,60.5,69.3,55.4,69.3z"/>
		<path class="st2" d="M28.5,5.7v1.8C25.6,5.2,22,3.8,18,3.8c-9.3,0-16.9,7.6-16.9,16.9C1.1,30,8.6,37.5,18,37.5
			c4,0,7.7-1.4,10.6-3.7v3.7h8.2V5.7H28.5z M18,30c-5.1,0-9.3-4.2-9.3-9.3c0-5.1,4.2-9.3,9.3-9.3c5.1,0,9.3,4.2,9.3,9.3
			C27.3,25.8,23.1,30,18,30z"/>
	</g>
	<g>
		<path class="st2" d="M96.6,71.6c0,3.4,2.4,3.4,2.4,3.4h2.4V57.3h-4.9C96.6,57.3,96.6,69.4,96.6,71.6z"/>
		<path class="st2" d="M82.7,57.3l0,11.7h0c0,1.5-2.8,3.1-2.8,3.1l2.3,3.1c3.1-1,5.3-2.9,5.3-7.3V57.3H82.7z"/>
		<g>
			<rect x="82.3" y="47.5" class="st2" width="19.8" height="4.9"/>
		</g>
		<g>
			<polygon class="st2" points="94.6,75 89.7,75 89.7,38 94.6,39 			"/>
		</g>
		<path class="st2" d="M116.8,43.2h-7.4c-2.6,0-4.7,2.1-4.7,4.7v19.6c0,2.6,2.1,4.7,4.7,4.7h7.4c2.6,0,4.7-2.1,4.7-4.7V47.9
			C121.5,45.3,119.4,43.2,116.8,43.2z M116.8,64.5c0,1.5-1.2,2.8-2.8,2.8h-1.8c-1.5,0-2.8-1.2-2.8-2.8V50.9c0-1.5,1.2-2.8,2.8-2.8
			h1.8c1.5,0,2.8,1.2,2.8,2.8V64.5z"/>
		<path class="st2" d="M96.3,42.9c4.7,0,5.9-2.2,6.9-6.4l-3.7-1.3c0,0-1.1,2.8-4.7,2.8v0l-12.6,0l0,2c0,0-0.1,2.9,3,2.9H96.3z"/>
	</g>
</g>
<g>
	<g>
		<g>
			<path class="st2" d="M217.9,49.2c-4.6-6.1-11.5-12.3-13.4-13.9c-1.3-1.1-2.7-1.6-4-1.6c-1.3,0-2.6,0.6-3.7,1.5
				c-0.2,0.2-0.5,0.5-0.9,0.8c-2.7,2.3-11.2,10.1-11.4,10.3c-0.6,0.6-1.5,1-2.4,1c-0.8,0-1.7-0.4-2.6-1.2c-0.6-0.6-3.5-2.9-6.9-6.7
				c-2.1-2.3-3.8-4.4-3.8-4.4s-0.4,0.8-0.6,1.3c-0.2,0.5,0,0.7,0.1,0.9c1.1,1.6,6.3,7.8,13.4,13.9c1.3,1.1,2.7,1.6,4,1.6
				c1.3,0,2.6-0.6,3.7-1.5c0.2-0.2,0.6-0.5,0.9-0.8c2.7-2.3,7.9-7,10.3-9.3c0.5-0.5,0.9-0.8,1.1-1c0.6-0.6,1.5-1,2.4-1
				c0.8,0,1.7,0.4,2.6,1.2c1.5,1.3,4,3.6,6.9,6.6c2.1,2.3,3.8,4.4,3.8,4.4c0,0,0.4-0.8,0.6-1.4C218.1,49.6,218,49.3,217.9,49.2"/>
			<path class="st3" d="M190.5,26.8c-2.4,1.7-12.2,10.8-14.1,13c0,0,1.4,1.5,3.4,3.2c0.5,0.5,1.2,0.4,1.7-0.2
				c3.8-3.8,11.5-10.6,12.5-11.4c2.9-2.5,6.3-2.7,9.4-0.4c7.5,5.6,14.2,14.5,15.3,16.2c0,0,0.2-0.8,0.3-1.5c0,0,0.1-0.7-0.2-1.3
				c-7.1-10.2-14.6-16.5-17.5-18.1C198.1,24.6,194.3,24,190.5,26.8"/>
			<path class="st3" d="M182.5,21.4c-4.8,3.9-11.1,9.7-12.7,11.4c0,0,1.2,1.5,3,3.3c0.4,0.3,0.7,0.2,1.1-0.1c4.8-4.6,10-9.4,13-11.7
				c5.1-3.9,11-4.3,16.9,0.3c2.2,1.7,4.1,3.4,6.9,6.3c3.6,3.9,5.9,7.2,8.5,10.9c0,0,0-1-0.3-2.3c0-0.2-0.1-0.6-0.3-0.9
				c-0.5-1-2.8-4.9-6.1-8.7c-6.5-7.6-10.6-9.9-13.3-11.3C195.8,16.8,189,16.3,182.5,21.4"/>
			<path class="st3" d="M195.6,59.7c2.4-1.7,12.2-10.8,14.1-13c0,0-1.4-1.5-3.4-3.2c-0.5-0.5-1.2-0.4-1.7,0.2
				C200.7,47.4,193,54.2,192,55c-2.9,2.5-6.3,2.7-9.4,0.4c-7.5-5.6-14.2-14.5-15.3-16.2c0,0-0.2,0.8-0.3,1.5c0,0-0.1,0.7,0.2,1.3
				c7.1,10.2,14.6,16.5,17.5,18.1C188,61.9,191.8,62.4,195.6,59.7"/>
			<path class="st3" d="M203.5,65c4.8-3.9,11.1-9.7,12.7-11.4c0,0-1.2-1.5-3-3.3c-0.4-0.3-0.7-0.2-1,0.1c-4.8,4.6-10,9.4-13,11.7
				c-5.1,3.9-11,4.3-16.9-0.3c-2.2-1.7-4.1-3.4-6.9-6.3c-3.6-3.9-5.9-7.2-8.5-10.9c0,0,0,0.9,0.3,2.3c0.1,0.2,0.1,0.6,0.3,0.9
				c0.5,1,2.8,4.9,6.1,8.8c6.5,7.6,10.6,9.9,13.3,11.3C190.3,69.6,197.1,70.2,203.5,65"/>
		</g>
		<g>
			<path class="st3" d="M242.6,20.2h-2.5v4.6h-9.3v12.8h9.3v6.9h2.5v-6.9h9.4V24.8h-9.4V20.2z M240.1,35.3h-6.9V27h6.9V35.3z
				 M249.6,35.3h-6.9V27h6.9V35.3z"/>
			<path class="st3" d="M272,32.7l-1.7,1.3l0.2,0.2c0.7,0.7,1.6,1.8,2.3,2.8l0.1,0.2l1.8-1.4l-0.1-0.2c-0.6-0.8-1.6-1.9-2.4-2.8
				L272,32.7z"/>
			<polygon class="st3" points="275.7,37.5 269.6,37.5 269.6,32.5 274.8,32.5 274.8,30.4 269.6,30.4 269.6,27.2 275.3,27.2
				275.3,25.2 261.8,25.2 261.8,27.2 267.4,27.2 267.4,30.4 262.2,30.4 262.2,32.5 267.4,32.5 267.4,37.5 261.4,37.5 261.4,39.6
				275.7,39.6 			"/>
			<path class="st3" d="M257.8,43.8l21.5,0V21.1h-21.5V43.8z M277,41.7h-16.9V23.2H277V41.7z"/>
			<path class="st3" d="M294,34.2c-1-0.9-3.9-3.2-3.9-3.2v-1.2h3.3v-2.2h-3.3v-3.5c2.4-0.4,3.4-0.7,3.4-0.7l-0.5-2.2
				c0,0-2.1,0.5-4.3,0.8c-2.8,0.4-4.4,0.5-4.4,0.5l0.2,2.2c0,0,1.8-0.2,3.3-0.5v3.3h-3.8v2.2h3.5c-0.9,2.9-2.4,5.7-3.9,7.9
				c0,0,1.6,1.8,1.6,1.7c1-1.4,1.9-3,2.6-4.7v9.7h2.2V33.8c0.8,0.8,1.6,1.5,2.3,2.1l0.2,0.2l1.6-1.8L294,34.2z"/>
			<path class="st3" d="M301.8,32.5c0.4-0.5,0.6-1.1,0.6-1.1l-2.2-0.4c0.4-0.2,0.8-0.5,1.2-0.7c2.7-1.7,4.5-3.7,5.7-6l0-0.1v-2h-7.8
				c0.2-0.4,0.5-0.8,0.7-1.2l0.1-0.2L298,20l-0.1,0.2c-1.2,2.4-3,4.6-5.2,6.4c0,0,1.2,0.9,1.8,1.4c1.3-1.2,2.5-2.4,3.3-3.5h6.6
				c-1.2,1.5-2.3,2.7-3.6,3.6c-0.9-0.8-1.6-1.4-2.7-2.3l-0.2-0.1l-1.4,1.5l0.2,0.1c1,0.8,1.6,1.3,2.2,1.9c-1.7,0.9-3.6,1.7-5.8,2.3
				c0,0,1.4,1.9,1.5,1.9c1.3-0.4,3.9-1.6,5-2.1c-1.5,2.9-4.7,5.3-7,6.5c0,0,1,1,1.7,1.7c3.6-1.7,6.1-4.9,6.1-4.9h5
				c-0.3,1.7-1.8,3.8-3.9,5.1c-0.8-0.8-1.7-1.6-2.6-2.5l-1.6,1.4c0.9,0.8,1.6,1.6,2.3,2.3c-3.2,1.4-7.4,1.6-7.4,1.6l0.9,1.9
				c0,0,12.4-0.3,14.9-9.9l0-2.1H301.8z"/>
			<rect x="312.3" y="22.5" class="st3" width="10.1" height="2.2"/>
			<path class="st3" d="M322.8,39.9c-0.7-1.8-1.8-4.3-2.7-6.1l-0.1-0.2l-2.1,0.9l0.1,0.2c0.5,1.2,1,2.3,1.5,3.6l-5.3,1.3
				c1.2-1.9,2.6-6.3,3.4-8.6h5.6v-2.2h-12.1v2.2h4c-0.2,1.3-1.6,5.5-3.5,8.9c-0.2,0.4-0.6,0.7-0.6,0.7l0.7,1.6c0,0,6.5-1.8,8.4-2
				l0.2,0.6L322.8,39.9z"/>
			<path class="st3" d="M328.2,25.2c0-1.6,0.1-3.1,0.1-4.7v-0.2h-2.4v0.2c0,1.6,0,3.2,0,4.7h-3.2v2.3h3.1v3c0,4.6-0.8,7-2.6,9.7
				c-1.1,1.7-3,2.8-3,2.8l1.8,1.8c0,0,6.2-3.2,6.2-13.3l0-4h4.1c0,4.1-0.2,8.2-0.4,12.1c0,1.2-0.6,1.8-1.6,1.8c-0.9,0-2.7,0-2.7,0
				c0.1,0.7,0.4,2.4,0.4,2.4h2.9c2.1,0,3.2-1.3,3.4-3.7c0.2-3.7,0.4-8.6,0.5-14.7l0-0.2H328.2z"/>
		</g>
		<g>
			<path class="st3" d="M252.7,54.1c-0.3-0.3-0.7-0.4-1-0.5c-0.7-0.2-1.5-0.2-2.1,0c-0.3,0.1-0.6,0.2-0.9,0.3
				c-0.3,0.1-0.5,0.3-0.7,0.5c-0.1,0.1-0.2,0.2-0.3,0.3v-5.9h-1.9v14.5h1.9v-6.7c0.3-0.5,0.7-0.8,1.2-1.1c0.5-0.3,0.9-0.4,1.4-0.4
				c0.6,0,1,0.2,1.2,0.5c0.3,0.3,0.4,0.9,0.4,1.6v6.1h1.9v-6.4c0-0.7-0.1-1.3-0.3-1.7C253.3,54.7,253,54.3,252.7,54.1"/>
			<rect x="255.8" y="49.8" class="st3" width="1.9" height="2.1"/>
			<rect x="255.8" y="53.6" class="st3" width="1.9" height="9.6"/>
			<path class="st3" d="M266.8,54.2c-0.3-0.3-0.6-0.5-1-0.6c-0.7-0.2-1.6-0.2-2.3-0.1c-0.3,0.1-0.6,0.2-0.9,0.3
				c-0.3,0.1-0.5,0.3-0.7,0.5c-0.1,0.1-0.3,0.2-0.4,0.4l-0.2-1.1h-1.5v9.6h1.9v-6.7c0.3-0.5,0.7-0.8,1.2-1.1
				c0.5-0.3,0.9-0.4,1.4-0.4c0.5,0,0.9,0.2,1.2,0.5c0.3,0.3,0.4,0.9,0.4,1.6v6.1h1.9v-6.4c0-0.6-0.1-1.2-0.2-1.6
				C267.3,54.8,267,54.5,266.8,54.2"/>
			<path class="st3" d="M276.6,55.3c-0.3-0.6-0.7-1-1.4-1.4c-0.6-0.3-1.4-0.5-2.4-0.5c-0.3,0-0.5,0-0.8,0c-0.3,0-0.5,0.1-0.8,0.1
				c-0.2,0.1-0.5,0.1-0.7,0.2c-0.2,0.1-0.4,0.1-0.6,0.2l-0.1,0v1.6l0.2-0.1c0.4-0.1,0.8-0.3,1.2-0.4c0.4-0.1,0.8-0.1,1.3-0.1
				c0.6,0,1.1,0.1,1.4,0.3c0.3,0.2,0.6,0.4,0.7,0.7c0.1,0.1,0.1,0.3,0.1,0.5c0,0.2,0.1,0.4,0.1,0.6v0.4c-0.3-0.1-0.6-0.2-0.9-0.2
				c-0.4-0.1-0.9-0.1-1.4-0.1c-0.5,0-1,0.1-1.5,0.2c-0.4,0.1-0.8,0.4-1.1,0.6c-0.3,0.3-0.6,0.6-0.7,1c-0.2,0.4-0.3,0.8-0.3,1.3
				c0,0.5,0.1,0.9,0.2,1.3c0.2,0.4,0.4,0.7,0.7,1c0.3,0.3,0.6,0.5,1,0.6c0.4,0.1,0.8,0.2,1.3,0.2c0.3,0,0.7,0,1-0.1
				c0.3-0.1,0.6-0.2,0.8-0.3c0.3-0.1,0.5-0.3,0.7-0.4c0.1-0.1,0.2-0.2,0.3-0.2l0.1,0.8h1.6v-6.4c0-0.3,0-0.6-0.1-0.8
				C276.7,55.8,276.7,55.5,276.6,55.3 M275,59.1v1.6c-0.1,0.1-0.2,0.1-0.3,0.2c-0.1,0.1-0.3,0.2-0.5,0.4c-0.2,0.1-0.5,0.2-0.7,0.3
				c-0.5,0.2-1,0.2-1.5,0c-0.2-0.1-0.4-0.2-0.5-0.3c-0.1-0.1-0.2-0.3-0.3-0.5c-0.1-0.2-0.1-0.4-0.1-0.7c0-0.5,0.2-0.9,0.5-1.1
				c0.3-0.2,0.8-0.4,1.4-0.4c0.4,0,0.9,0,1.2,0.1C274.4,59,274.7,59.1,275,59.1"/>
			<path class="st3" d="M242.2,59c-0.9,1.6-2.6,2.5-4.4,2.5c-2.8,0-5.1-2.3-5.1-5.1c0-2.8,2.3-5.1,5.1-5.1c1.8,0,3.5,1,4.4,2.5
				l0.1,0.1h2l-0.1-0.3c-1.1-2.5-3.6-4.2-6.4-4.2c-3.8,0-6.9,3.1-6.9,6.9s3.1,6.9,6.9,6.9c2.8,0,5.3-1.6,6.4-4.2l0.1-0.3L242.2,59
				L242.2,59z"/>
			<path class="st3" d="M290.3,57.3c-0.3,0.6-0.6,1.5-1,2.7c-0.4-1-0.7-1.9-1-2.7l-3.1-7.5h-2.6v13.4h2v-6.5c0-1.2,0-2.6-0.1-4.1
				c0.4,0.9,0.7,1.8,1,2.6l3.3,7.9h1l3.3-7.9c0.3-0.8,0.7-1.7,1.1-2.7c-0.1,1.5-0.1,2.8-0.1,4.1v6.5h2V49.8h-2.6L290.3,57.3z"/>
			<path class="st3" d="M316.6,55.3c-0.2-0.4-0.5-0.7-0.8-0.9c-0.3-0.2-0.6-0.4-0.9-0.6c-0.3-0.1-0.6-0.3-0.9-0.3
				c-0.3-0.1-0.6-0.1-0.9-0.1c-0.6,0-1.1,0.1-1.6,0.3c-0.3,0.2-0.7,0.4-0.9,0.6v-5.5h-1.9v14.5h1.5l0.3-0.9c0,0,0.1,0.1,0.1,0.1
				c0.1,0.2,0.3,0.3,0.5,0.5c0.2,0.1,0.5,0.3,0.8,0.4c0.3,0.1,0.7,0.2,1.1,0.2c0.5,0,1.1-0.1,1.6-0.3c0.5-0.2,1-0.5,1.4-1
				c0.4-0.4,0.7-1,1-1.6c0.2-0.6,0.4-1.4,0.4-2.3c0-0.6-0.1-1.2-0.2-1.7C317,56.1,316.9,55.7,316.6,55.3 M315.4,58.4
				c0,0.5-0.1,1-0.2,1.4c-0.1,0.4-0.3,0.8-0.5,1.1c-0.2,0.3-0.5,0.5-0.8,0.7c-0.3,0.2-0.7,0.2-1.1,0.2c-0.3,0-0.5,0-0.8-0.1
				c-0.2-0.1-0.5-0.2-0.6-0.3c-0.2-0.1-0.4-0.2-0.5-0.4c-0.1-0.1-0.2-0.2-0.3-0.3V56c0.3-0.3,0.6-0.5,1-0.7c0.6-0.3,1.4-0.4,2.1-0.1
				c0.3,0.1,0.5,0.2,0.8,0.5c0.2,0.2,0.5,0.6,0.6,1C315.3,57.1,315.4,57.7,315.4,58.4"/>
			<rect x="318.8" y="53.6" class="st3" width="1.9" height="9.6"/>
			<rect x="318.8" y="49.8" class="st3" width="1.9" height="2.1"/>
			<rect x="322.8" y="48.8" class="st3" width="1.9" height="14.5"/>
			<path class="st3" d="M334.2,56c-0.2-0.6-0.5-1.1-0.8-1.5c-0.4-0.4-0.8-0.7-1.2-0.9c-1-0.4-2.2-0.4-3.2,0.1c-0.5,0.2-1,0.5-1.4,1
				c-0.4,0.4-0.7,1-1,1.6c-0.2,0.6-0.4,1.4-0.4,2.3c0,0.9,0.1,1.6,0.4,2.3c0.2,0.6,0.6,1.1,1,1.5c0.4,0.4,1,0.7,1.6,0.9
				c0.6,0.2,1.2,0.3,1.9,0.3c0.6,0,1.1,0,1.6-0.1c0.5-0.1,0.9-0.2,1.3-0.4l0.1-0.1v-1.6l-0.2,0.1c-0.4,0.1-0.8,0.3-1.2,0.3
				c-0.4,0.1-0.8,0.1-1.3,0.1c-0.5,0-0.9-0.1-1.3-0.2c-0.4-0.1-0.7-0.3-1-0.5c-0.3-0.2-0.5-0.5-0.7-0.9c-0.1-0.4-0.2-0.8-0.2-1.3
				h6.4l0-0.2c0-0.2,0-0.3,0-0.4v-0.2C334.5,57.3,334.4,56.6,334.2,56 M328.2,57.3c0-0.3,0.1-0.5,0.2-0.8c0.1-0.3,0.3-0.5,0.5-0.8
				c0.2-0.2,0.5-0.4,0.7-0.5c0.5-0.2,1.3-0.2,1.8,0c0.3,0.1,0.5,0.3,0.6,0.5c0.2,0.2,0.3,0.5,0.4,0.8c0.1,0.2,0.1,0.5,0.1,0.8H328.2
				z"/>
			<path class="st3" d="M302.4,53.4c-2.8,0-5,2.3-5,5c0,2.8,2.3,5,5,5c2.8,0,5-2.3,5-5C307.5,55.6,305.2,53.4,302.4,53.4
				 M302.4,61.8c-1.9,0-3.4-1.5-3.4-3.4c0-1.9,1.5-3.4,3.4-3.4c1.9,0,3.4,1.5,3.4,3.4C305.8,60.3,304.3,61.8,302.4,61.8"/>
		</g>
	</g>
</g>
</svg>
